<svg width="20" height="20" viewBox="0 0 20 20" fill="none" xmlns="http://www.w3.org/2000/svg">
<g clip-path="url(#clip0_141_5)">
<path d="M8.33332 15.8329V11.6663H11.6667V15.8329C11.6667 16.2913 12.0417 16.6663 12.5 16.6663H15C15.4583 16.6663 15.8333 16.2913 15.8333 15.8329V9.99961H17.25C17.6333 9.99961 17.8167 9.52461 17.525 9.27461L10.5583 2.99961C10.2417 2.71628 9.75832 2.71628 9.44166 2.99961L2.47499 9.27461C2.19166 9.52461 2.36666 9.99961 2.74999 9.99961H4.16666V15.8329C4.16666 16.2913 4.54166 16.6663 4.99999 16.6663H7.49999C7.95832 16.6663 8.33332 16.2913 8.33332 15.8329Z" fill="white"/>
</g>
<defs>
<clipPath id="clip0_141_5">
<rect width="20" height="20" fill="white"/>
</clipPath>
</defs>
</svg>
