<svg xmlns="http://www.w3.org/2000/svg" viewBox="0 0 1010 990.04"><defs><style>.cls-1{fill:#9cb4ff;}</style></defs><g id="Layer_2" data-name="Layer 2"><g id="Layer_1-2" data-name="Layer 1"><path class="cls-1" d="M1010,495c0,53.94-18.3,104.34-34.1,153-16.38,50.44-31.76,101.85-62.31,143.84C882.72,834.28,838.37,864.66,796,895.52c-42,30.56-84.42,63.54-134.86,79.91C612.43,991.24,558.94,990,505,990s-107.42,1.22-156.09-14.59C298.46,959.06,256,926.08,214,895.52c-42.41-30.86-86.76-61.24-117.63-103.65-30.55-42-45.93-93.4-62.31-143.84C18.3,599.36,0,549,0,495S18.3,390.69,34.1,342c16.38-50.45,31.76-101.86,62.31-143.85,30.87-42.4,75.22-72.79,117.63-103.65C256,64,298.46,31,348.9,14.61,397.57-1.19,451.06,0,505,0S612.42-1.19,661.09,14.61C711.54,31,754,64,796,94.52c42.41,30.86,86.76,61.25,117.63,103.65,30.55,42,45.93,93.4,62.31,143.84C991.7,390.68,1010,441.08,1010,495Z"/></g></g></svg>