<svg xmlns="http://www.w3.org/2000/svg" viewBox="0 0 217.38 29.77"><defs><style>.cls-1{fill:#7b7b7b;}</style></defs><g id="Layer_2" data-name="Layer 2"><g id="Layer_1-2" data-name="Layer 1"><path class="cls-1" d="M66.61,23.81l.2-.11-2.37-4.53L64,18.32l-1.57-3L62,14.47l-1.56-3L60,10.63l-1.57-3L58,6.78,56,3.06V0H52.82V3.16h0c-.46.55-1,1.18-1.65,1.85l-.45.46Q50,6.26,49.1,7.07l-.44.41c-.52.46-1.06.93-1.62,1.38l-.45.36c-.52.41-1.07.8-1.62,1.19l-.45.3q-.78.51-1.62,1l-.44.24c-.53.28-1.07.54-1.62.79l-.45.18a15.56,15.56,0,0,1-1.62.57l-.45.13A12.62,12.62,0,0,1,36.7,14c-.14,0-.29,0-.44.06a12.6,12.6,0,0,1-1.62.11h-.45A12.65,12.65,0,0,1,32.57,14l-.45-.07c-.54-.1-1.08-.22-1.61-.37l-.45-.14a15.68,15.68,0,0,1-1.62-.59,4.32,4.32,0,0,1-.45-.19c-.55-.24-1.09-.5-1.62-.79l-.44-.24c-.56-.31-1.1-.64-1.62-1l-.45-.3Q23,9.75,22.24,9.15l-.45-.35c-.56-.45-1.1-.9-1.62-1.36L19.73,7q-.87-.78-1.62-1.53-.22-.24-.45-.45c-.56-.58-1.06-1.12-1.5-1.61V0H13V2.45L10.7,6.79l-.44.84L8.65,10.7l-.45.85L6.59,14.62l-.44.85L1.69,24l.2.11h0C.7,24.6,0,24.93,0,24.93l2.7,4.84s20.11-7.23,23.13-6.35,2.86,2.22,2.86,2.22-1.35,4.13,1.3,4.13h9.37s2.28-.74,1-4.13c0,0-.15-1.35,2.87-2.22s23.12,6.35,23.12,6.35l2.7-4.84S68.15,24.49,66.61,23.81ZM64,19.29v3.13h.45V20.14l1.84,3.52h0c-1.07-.47-2.38-1-3.86-1.65V16.28Zm-2-3.86v6.39l-1.56-.64V12.44Zm-2-3.84V21l-1.57-.61V8.6ZM50.72,6.12V17.7c-.55-.17-1.09-.33-1.62-.47V7.68Q50,6.89,50.72,6.12Zm-2.06,2v9c-.56-.15-1.1-.28-1.62-.4V9.43C47.6,9,48.14,8.53,48.66,8.07ZM46.59,9.78v6.83c-.57-.12-1.11-.22-1.62-.29V10.94C45.52,10.57,46.07,10.18,46.59,9.78Zm-8.27,4.29v3.15a7.78,7.78,0,0,0-1.62,1.1V14.41A12.59,12.59,0,0,0,38.32,14.07Zm-2.06.4v4.28a6.63,6.63,0,0,0-1.62,2.9V14.58A12.6,12.6,0,0,0,36.26,14.47Zm-4.14-.1V18.1a8.23,8.23,0,0,0-1.61-1V14A15,15,0,0,0,32.12,14.37Zm-8.26-3.53v5.51c-.51.09-1.06.19-1.62.32v-7Q23,10.29,23.86,10.84ZM21.79,9.35v7.42c-.52.12-1.06.26-1.62.41V8Q21,8.71,21.79,9.35ZM19.73,7.64V17.3l-1.62.48V6.13C18.61,6.62,19.15,7.13,19.73,7.64Zm-9.47,1v12l-1.61.64V11.66ZM8.2,12.52v8.85L6.59,22V15.58Zm-6,11.4h0l3.93-7.48v5.78C4.61,22.87,3.26,23.46,2.22,23.92Zm8.48-3.54V7.75L13,3.4V19.52C12.21,19.8,11.45,20.09,10.7,20.38ZM16.16,4.1c.44.49.95,1,1.5,1.58V17.91l-1.5.49Zm8.15,12.19V11.14q.78.51,1.62,1v4Q25.18,16.17,24.31,16.29Zm2.06-.16V12.34c.53.28,1.07.54,1.62.77V16.3l-.73-.11A6.13,6.13,0,0,0,26.37,16.13Zm2.07.26V13.3c.53.22,1.07.41,1.62.58v3A10.65,10.65,0,0,0,28.44,16.39Zm4.13,2.1v-4c.54.07,1.08.12,1.62.14v6.31A6.79,6.79,0,0,0,32.57,18.49ZM38.77,17V14c.55-.16,1.09-.35,1.62-.56v3.07A9.31,9.31,0,0,0,38.77,17Zm2.07-.66V13.2a17,17,0,0,0,1.62-.76v3.7a6,6,0,0,0-.63.05C41.48,16.23,41.15,16.29,40.84,16.35Zm2.06-.22V12.2q.84-.45,1.62-1v5Q43.65,16.15,42.9,16.13Zm8.27,1.7V5.67c.62-.65,1.17-1.27,1.65-1.82h0V18.37C52.27,18.18,51.71,18,51.17,17.83ZM56,4l2,3.72V20.21l-2-.73Z"/><path class="cls-1" d="M85.86,29.77V23.38H74.64v-4h26.88v4H90.3v6.39Zm-9.66-13V1h4.65V5.62H94.92V1h4.65V16.78Zm4.65-4.05H94.92v-3H80.85Z"/><path class="cls-1" d="M114.57,1.36l5.88,14.34h-4.74l-3.57-8.58-3.57,8.58h-4.74l5.88-14.34ZM131,10.93h-3.06V29.59H106v-9.3h4.23v5.22H123.6V1.21h4.32V6.7H131Z"/><path class="cls-1" d="M143.43,25.66V17.44h-9.21V1.36h22.95v4H138.75v8.13h18.42v4h-9.24v8.22h10.65v3.93h-25.8V25.66Z"/><path class="cls-1" d="M174,29.44l-4-18.21-3.93,18.21h-4.38l6.3-28.08h4.05l6.3,28.08Zm12.3.15h-4.17v-15h-5.07V10.48h5.07V1.21h4.17Z"/><path class="cls-1" d="M200.43,9.07V16h10.08V1.21h3.81V8.65h3.06v3.48h-3.06v7.62h-17.7V25.6h18.12v4H192.42V19.75h-2V16h5.85V9.07Zm7.11,3.78h-3.9V5.05H192.09V1.36h15.45Z"/></g></g></svg>